<svg width="48" height="48" viewBox="0 0 48 48" fill="none" xmlns="http://www.w3.org/2000/svg">
<g clip-path="url(#clip0_6155_21085)">
<path d="M24 0C19.2533 0 14.6131 1.40758 10.6663 4.04473C6.71954 6.68188 3.6434 10.4302 1.8269 14.8156C0.0103988 19.201 -0.464881 24.0266 0.461164 28.6822C1.38721 33.3377 3.67299 37.6141 7.02945 40.9706C10.3859 44.327 14.6623 46.6128 19.3178 47.5388C23.9734 48.4649 28.799 47.9896 33.1844 46.1731C37.5698 44.3566 41.3181 41.2805 43.9553 37.3337C46.5924 33.3869 48 28.7467 48 24C48 20.8483 47.3792 17.7274 46.1731 14.8156C44.967 11.9038 43.1992 9.25804 40.9706 7.02944C38.742 4.80083 36.0962 3.033 33.1844 1.82689C30.2726 0.620778 27.1517 0 24 0ZM24 43.2C18.9079 43.2 14.0243 41.1771 10.4236 37.5764C6.82286 33.9757 4.80001 29.0921 4.80001 24C4.79471 19.736 6.22325 15.5941 8.85601 12.24L35.76 39.144C32.4059 41.7768 28.264 43.2053 24 43.2ZM39.144 35.76L12.24 8.856C15.5941 6.22324 19.736 4.7947 24 4.8C29.0922 4.8 33.9758 6.82285 37.5765 10.4235C41.1772 14.0242 43.2 18.9078 43.2 24C43.2053 28.264 41.7768 32.4059 39.144 35.76Z" fill="#E40D12"/>
</g>
<defs>
<clipPath id="clip0_6155_21085">
<rect width="48" height="48" fill="white"/>
</clipPath>
</defs>
</svg>
