<svg width="48" height="48" viewBox="0 0 48 48" fill="none" xmlns="http://www.w3.org/2000/svg">
<path d="M44.4029 44.3002H3.52247L23.4836 3.41976L44.4029 44.3002ZM44.7981 45.0725C44.7978 45.0719 44.7976 45.0714 44.7973 45.0709L44.798 45.0724L44.7981 45.0725Z" fill="#F6F700" stroke="#E40D12" stroke-width="4.4"/>
<path d="M25.9949 17.7828L25.2872 30.0841C25.2342 31.0045 24.6151 31.695 23.9044 31.6264C23.2586 31.5641 22.7595 30.8961 22.7134 30.0841L22.0056 17.7828C21.9235 16.3562 22.75 15.1135 23.8517 15.0073C24.9533 14.901 25.9129 15.9713 25.9949 17.3979C26.0021 17.5229 26.0013 17.6612 25.9949 17.7828ZM24.0003 34.2504C22.9875 34.2504 22.1664 35.3136 22.1664 36.6253C22.1664 37.9368 22.9875 39 24.0003 39C25.013 39 25.8341 37.9368 25.8341 36.6252C25.8341 35.3136 25.013 34.2504 24.0003 34.2504Z" fill="#080900"/>
</svg>
